<svg width="24" height="24" viewBox="0 0 24 24" fill="none" xmlns="http://www.w3.org/2000/svg">
<path d="M21 6H7.05L5.94 2.68C5.87292 2.48138 5.7451 2.30886 5.57463 2.18684C5.40416 2.06482 5.19965 1.99946 4.99 2H1.99V4H4.27L7.81 14.63C7.94246 15.0291 8.19736 15.3763 8.53845 15.6223C8.87955 15.8682 9.28948 16.0004 9.71 16H17.3C17.7069 15.9993 18.104 15.8745 18.4381 15.6422C18.7722 15.4099 19.0276 15.0812 19.17 14.7L21.93 7.35C22.04 7.04 22 6.7 21.82 6.43C21.7281 6.29753 21.6055 6.18925 21.4628 6.11438C21.32 6.03951 21.1612 6.00026 21 6ZM17.31 14H9.72L7.72 8H19.56L17.31 14ZM10 18C9.46957 18 8.96086 18.2107 8.58579 18.5858C8.21072 18.9609 8 19.4696 8 20C8 20.5304 8.21072 21.0391 8.58579 21.4142C8.96086 21.7893 9.46957 22 10 22C10.5304 22 11.0391 21.7893 11.4142 21.4142C11.7893 21.0391 12 20.5304 12 20C12 19.4696 11.7893 18.9609 11.4142 18.5858C11.0391 18.2107 10.5304 18 10 18ZM17 18C16.4696 18 15.9609 18.2107 15.5858 18.5858C15.2107 18.9609 15 19.4696 15 20C15 20.5304 15.2107 21.0391 15.5858 21.4142C15.9609 21.7893 16.4696 22 17 22C17.5304 22 18.0391 21.7893 18.4142 21.4142C18.7893 21.0391 19 20.5304 19 20C19 19.4696 18.7893 18.9609 18.4142 18.5858C18.0391 18.2107 17.5304 18 17 18Z" fill="white"/>
</svg>
