<svg width="24" height="24" viewBox="0 0 24 24" fill="none" xmlns="http://www.w3.org/2000/svg">
<path d="M9.55 15.15L18.025 6.675C18.225 6.475 18.4583 6.375 18.725 6.375C18.9917 6.375 19.225 6.475 19.425 6.675C19.625 6.875 19.725 7.11267 19.725 7.388C19.725 7.66333 19.625 7.90067 19.425 8.1L10.25 17.3C10.05 17.5 9.81666 17.6 9.55 17.6C9.28333 17.6 9.05 17.5 8.85 17.3L4.55 13C4.35 12.8 4.254 12.5627 4.262 12.288C4.27 12.0133 4.37433 11.7757 4.575 11.575C4.77566 11.3743 5.01333 11.2743 5.288 11.275C5.56266 11.2757 5.8 11.3757 6 11.575L9.55 15.15Z" fill="white"/>
</svg>
