<svg width="23" height="23" viewBox="0 0 23 23" fill="none" xmlns="http://www.w3.org/2000/svg">
<path d="M11.25 12.5625L6.65625 17.1562C6.48437 17.3281 6.26562 17.4141 6 17.4141C5.73437 17.4141 5.51562 17.3281 5.34375 17.1562C5.17187 16.9844 5.08594 16.7656 5.08594 16.5C5.08594 16.2344 5.17187 16.0156 5.34375 15.8437L9.9375 11.25L5.34375 6.65625C5.17187 6.48437 5.08594 6.26562 5.08594 6C5.08594 5.73437 5.17187 5.51562 5.34375 5.34375C5.51562 5.17187 5.73437 5.08594 6 5.08594C6.26562 5.08594 6.48437 5.17187 6.65625 5.34375L11.25 9.9375L15.8437 5.34375C16.0156 5.17187 16.2344 5.08594 16.5 5.08594C16.7656 5.08594 16.9844 5.17187 17.1562 5.34375C17.3281 5.51562 17.4141 5.73437 17.4141 6C17.4141 6.26562 17.3281 6.48437 17.1562 6.65625L12.5625 11.25L17.1562 15.8437C17.3281 16.0156 17.4141 16.2344 17.4141 16.5C17.4141 16.7656 17.3281 16.9844 17.1562 17.1562C16.9844 17.3281 16.7656 17.4141 16.5 17.4141C16.2344 17.4141 16.0156 17.3281 15.8437 17.1562L11.25 12.5625Z" fill="#D9A066"/>
</svg>
