<svg width="24" height="24" viewBox="0 0 24 24" fill="none" xmlns="http://www.w3.org/2000/svg">
<path d="M6 22C5.45 22 4.97933 21.8043 4.588 21.413C4.19667 21.0217 4.00067 20.5507 4 20V18C3.71667 18 3.47933 17.904 3.288 17.712C3.09667 17.52 3.00067 17.2827 3 17C3 16.7333 3.121 16.546 3.363 16.438C3.605 16.33 3.81733 16.184 4 16V13C3.71667 13 3.47933 12.904 3.288 12.712C3.09667 12.52 3.00067 12.2827 3 12C3 11.7333 3.121 11.546 3.363 11.438C3.605 11.33 3.81733 11.184 4 11V8C3.71667 8 3.47933 7.904 3.288 7.712C3.09667 7.52 3.00067 7.28267 3 7C3 6.73333 3.121 6.546 3.363 6.438C3.605 6.33 3.81733 6.184 4 6V4C4 3.45 4.196 2.97933 4.588 2.588C4.98 2.19667 5.45067 2.00067 6 2H18C18.55 2 19.021 2.196 19.413 2.588C19.805 2.98 20.0007 3.45067 20 4V20C20 20.55 19.8043 21.021 19.413 21.413C19.0217 21.805 18.5507 22.0007 18 22H6ZM9.5 13V16.25C9.5 16.4667 9.571 16.646 9.713 16.788C9.855 16.93 10.034 17.0007 10.25 17C10.466 16.9993 10.6453 16.9283 10.788 16.787C10.9307 16.6457 11.0013 16.4667 11 16.25V13C11.4333 12.8833 11.7917 12.646 12.075 12.288C12.3583 11.93 12.5 11.5257 12.5 11.075V7.5C12.5 7.36667 12.45 7.25 12.35 7.15C12.25 7.05 12.1333 7 12 7C11.8667 7 11.75 7.05 11.65 7.15C11.55 7.25 11.5 7.36667 11.5 7.5V10.775H10.75V7.5C10.75 7.36667 10.7 7.25 10.6 7.15C10.5 7.05 10.3833 7 10.25 7C10.1167 7 10 7.05 9.9 7.15C9.8 7.25 9.75 7.36667 9.75 7.5V10.775H9V7.5C9 7.36667 8.95 7.25 8.85 7.15C8.75 7.05 8.63333 7 8.5 7C8.36667 7 8.25 7.05 8.15 7.15C8.05 7.25 8 7.36667 8 7.5V11.075C8 11.525 8.14167 11.9293 8.425 12.288C8.70833 12.6467 9.06667 12.884 9.5 13ZM15 13V16.25C15 16.4667 15.071 16.646 15.213 16.788C15.355 16.93 15.534 17.0007 15.75 17C15.966 16.9993 16.1453 16.9283 16.288 16.787C16.4307 16.6457 16.5013 16.4667 16.5 16.25V7.575C16.5 7.39167 16.4377 7.25 16.313 7.15C16.1883 7.05 16.0257 7 15.825 7C15.6083 7 15.371 7.05833 15.113 7.175C14.855 7.29167 14.609 7.46667 14.375 7.7C14.0917 7.98333 13.875 8.30433 13.725 8.663C13.575 9.02167 13.5 9.409 13.5 9.825V12C13.5 12.2833 13.596 12.521 13.788 12.713C13.98 12.905 14.2173 13.0007 14.5 13H15Z" fill="#313131"/>
</svg>
