<svg width="24" height="24" viewBox="0 0 24 24" fill="none" xmlns="http://www.w3.org/2000/svg">
<path d="M8.587 8.236L11.185 3.004C11.2606 2.85259 11.3769 2.72523 11.5209 2.63622C11.6648 2.54721 11.8308 2.50006 12 2.50006C12.1693 2.50006 12.3352 2.54721 12.4791 2.63622C12.6231 2.72523 12.7394 2.85259 12.815 3.004L15.413 8.236L21.221 9.08C21.3885 9.10323 21.5461 9.17309 21.6759 9.28161C21.8056 9.39013 21.9022 9.53294 21.9546 9.69373C22.0071 9.85452 22.0133 10.0268 21.9725 10.191C21.9317 10.3551 21.8456 10.5045 21.724 10.622L17.522 14.692L18.514 20.442C18.641 21.18 17.861 21.742 17.194 21.394L12 18.678L6.805 21.394C6.139 21.743 5.359 21.18 5.486 20.441L6.478 14.691L2.276 10.621C2.15499 10.5034 2.0694 10.3542 2.02897 10.1903C1.98853 10.0265 1.99487 9.85457 2.04727 9.69415C2.09967 9.53373 2.19602 9.39122 2.32537 9.28284C2.45472 9.17445 2.61189 9.10452 2.779 9.081L8.587 8.236Z" fill="#F1B045" stroke="#F1B045" stroke-width="1.5" stroke-linecap="round" stroke-linejoin="round"/>
</svg>
