<svg width="25" height="25" viewBox="0 0 25 25" fill="none" xmlns="http://www.w3.org/2000/svg">
<path d="M8.63541 20.8333C7.77083 20.8333 6.94791 20.6042 6.25 20.1458C5.0625 19.375 4.33333 18.1979 4.16666 16.8333C4.10709 16.1724 4.19276 15.5063 4.41769 14.8819C4.64261 14.2576 5.00134 13.6899 5.46875 13.2188C6.19791 12.5 7.125 12.0417 8.14583 11.9375C10.1354 11.7292 11.8854 10.9375 13.1875 9.61459C13.345 9.46124 13.5562 9.37543 13.776 9.37543C13.9959 9.37543 14.2071 9.46124 14.3646 9.61459L15.3958 10.6458C15.4689 10.718 15.5268 10.804 15.5661 10.8988C15.6055 10.9936 15.6255 11.0953 15.625 11.1979C15.625 11.4583 15.5104 11.6875 15.2917 11.9063C14.0312 13.1771 13.2604 14.8646 13.0729 16.8021C12.9375 18.1875 12.1979 19.375 10.9896 20.1563C10.3021 20.6042 9.48958 20.8333 8.63541 20.8333ZM8.63541 22.9167C9.85416 22.9167 11.0729 22.5833 12.125 21.9063C13.9583 20.7292 14.9687 18.8958 15.1458 17C15.2812 15.625 15.8021 14.3438 16.7604 13.3854L16.7917 13.3542C18 12.1458 18 10.3021 16.8646 9.17709L15.8333 8.14584C15.2604 7.57292 14.5208 7.29167 13.7812 7.29167C13.0417 7.29167 12.2917 7.57292 11.7187 8.14584C10.7083 9.15625 9.375 9.70834 7.92708 9.86459C6.5 10.0208 5.10416 10.6458 4 11.7396C3.30726 12.4314 2.7789 13.27 2.454 14.1936C2.1291 15.1171 2.01598 16.1019 2.12299 17.075C2.23001 18.0481 2.55442 18.9848 3.07225 19.8156C3.59008 20.6465 4.28806 21.3503 5.11458 21.875C6.16666 22.5729 7.39583 22.9167 8.63541 22.9167ZM18.4792 4.31251C18.1979 3.72917 18.2917 3.02084 18.7813 2.54167C18.9933 2.32644 19.2635 2.17777 19.5588 2.1139C19.8542 2.05003 20.1617 2.07375 20.4437 2.18214C20.7257 2.29052 20.97 2.47887 21.1465 2.72407C21.3231 2.96927 21.4242 3.26066 21.4375 3.56251C21.7393 3.57582 22.0307 3.67695 22.2759 3.85348C22.5211 4.03001 22.7095 4.27427 22.8179 4.5563C22.9263 4.83832 22.95 5.14585 22.8861 5.44116C22.8222 5.73647 22.6736 6.00672 22.4583 6.21876C21.9792 6.69792 21.2604 6.80209 20.6875 6.52084L18.1042 9.05209C17.9583 8.85417 17.7917 8.62501 17.6042 8.43751L16.5729 7.40626C16.3542 7.19792 16.1458 7.02084 15.875 6.86459L18.4792 4.31251Z" fill="white"/>
</svg>
