<svg width="21" height="22" viewBox="0 0 21 22" fill="none" xmlns="http://www.w3.org/2000/svg">
<path d="M4.62202 2.77895L5.92824 0H15.0718L16.378 2.77895H17.0311C17.3968 2.77895 17.6842 3.08463 17.6842 3.47368V4.86316C17.6842 5.25221 17.3968 5.55789 17.0311 5.55789H16.378L15.0718 20.8421H5.92824L4.62202 5.55789H3.96891C3.60316 5.55789 3.3158 5.25221 3.3158 4.86316V3.47368C3.3158 3.08463 3.60316 2.77895 3.96891 2.77895H4.62202ZM14.8367 8.33684L15.0718 5.55789H5.92824L6.17642 8.33684H14.8367ZM14.1182 16.6737H6.88178L7.1169 19.4526H13.8831L14.1182 16.6737Z" fill="#D9A066"/>
</svg>
