<svg width="14" height="14" viewBox="0 0 14 14" fill="none" xmlns="http://www.w3.org/2000/svg">
<path d="M6.64993 10.594L10.9643 6.27962C10.2385 5.97642 9.57928 5.53366 9.0241 4.97646C8.46663 4.42115 8.02366 3.76175 7.72035 3.03571L3.40601 7.35004C3.06943 7.68662 2.90085 7.85521 2.75618 8.04071C2.58549 8.25973 2.439 8.49658 2.31926 8.74712C2.21835 8.95946 2.1431 9.18579 1.9926 9.63729L1.1981 12.019C1.16153 12.1281 1.1561 12.2452 1.18243 12.3571C1.20876 12.4691 1.26579 12.5715 1.34712 12.6529C1.42845 12.7342 1.53086 12.7912 1.64282 12.8175C1.75479 12.8439 1.87188 12.8384 1.98093 12.8019L4.36268 12.0074C4.81476 11.8569 5.04051 11.7816 5.25285 11.6807C5.50446 11.5609 5.73993 11.4153 5.95926 11.2438C6.14476 11.0991 6.31335 10.9305 6.64993 10.594ZM12.1613 5.08262C12.5914 4.65245 12.8331 4.06902 12.8331 3.46067C12.8331 2.85231 12.5914 2.26888 12.1613 1.83871C11.7311 1.40854 11.1477 1.16687 10.5393 1.16687C9.93095 1.16687 9.34752 1.40854 8.91735 1.83871L8.39993 2.35612L8.4221 2.42087C8.677 3.15049 9.09428 3.8127 9.64243 4.35754C10.2036 4.9221 10.889 5.3476 11.6438 5.60004L12.1613 5.08262Z" fill="white"/>
</svg>
