<svg width="24" height="24" viewBox="0 0 24 24" fill="none" xmlns="http://www.w3.org/2000/svg">
<path fill-rule="evenodd" clip-rule="evenodd" d="M14 2C14.5044 2.00009 14.9901 2.19077 15.3599 2.53384C15.7297 2.8769 15.9562 3.34702 15.994 3.85L16 4H17C17.5044 4.00009 17.9901 4.19077 18.3599 4.53384C18.7297 4.8769 18.9562 5.34702 18.994 5.85L19 6V9.003C19.5202 9.03044 20.0092 9.25981 20.363 9.64229C20.7167 10.0248 20.9072 10.5302 20.894 11.051L20.885 11.199L20.175 18.299C20.1039 19.0089 19.7822 19.6702 19.2676 20.1643C18.753 20.6584 18.0792 20.9529 17.367 20.995L17.19 21H6.80998C6.09655 20.9999 5.40649 20.7456 4.86365 20.2827C4.3208 19.8197 3.96071 19.1785 3.84799 18.474L3.82499 18.299L3.11499 11.199C3.06316 10.6803 3.21593 10.1618 3.54076 9.75402C3.86558 9.34626 4.33679 9.08145 4.85399 9.016L4.99999 9.003V5C4.99983 4.49542 5.19039 4.00943 5.53348 3.63945C5.87657 3.26947 6.34683 3.04284 6.84998 3.005L6.99998 3H7.99999C8.50439 3.00009 8.99013 3.19077 9.3599 3.53384C9.72967 3.8769 9.95616 4.34702 9.99399 4.85L9.99999 5H11V4C10.9998 3.49542 11.1904 3.00943 11.5335 2.63945C11.8766 2.26947 12.3468 2.04284 12.85 2.005L13 2H14ZM11 7H9.99999V11.465C10.3107 11.6457 10.644 11.7823 11 11.875V7ZM14 4H13V11.874C13.3503 11.7835 13.6867 11.6459 14 11.465V4ZM7.99999 5H6.99998V9.014C7.38198 9.06 7.71999 9.212 7.99999 9.425V5ZM17 6H16V9.425C16.2404 9.24123 16.5178 9.11161 16.813 9.045L17 9.015V6Z" fill="#D9A066"/>
</svg>
