<svg width="24" height="24" viewBox="0 0 24 24" fill="none" xmlns="http://www.w3.org/2000/svg">
<path fill-rule="evenodd" clip-rule="evenodd" d="M14 2C14.5044 2.00009 14.9901 2.19077 15.3599 2.53384C15.7297 2.8769 15.9562 3.34702 15.994 3.85L16 4H17C17.5044 4.00009 17.9901 4.19077 18.3599 4.53384C18.7297 4.8769 18.9562 5.34702 18.994 5.85L19 6V9.003C19.5203 9.03044 20.0093 9.25981 20.363 9.64229C20.7167 10.0248 20.9072 10.5302 20.894 11.051L20.885 11.199L20.175 18.299C20.104 19.0089 19.7823 19.6702 19.2676 20.1643C18.753 20.6584 18.0792 20.9529 17.367 20.995L17.19 21H6.81C6.09656 20.9999 5.40651 20.7456 4.86366 20.2827C4.32082 19.8197 3.96072 19.1785 3.848 18.474L3.825 18.299L3.115 11.199C3.06317 10.6803 3.21595 10.1618 3.54077 9.75402C3.8656 9.34626 4.3368 9.08145 4.854 9.016L5 9.003V5C4.99984 4.49542 5.19041 4.00943 5.5335 3.63945C5.87659 3.26947 6.34684 3.04284 6.85 3.005L7 3H8C8.5044 3.00009 8.99015 3.19077 9.35992 3.53384C9.72968 3.8769 9.95617 4.34702 9.994 4.85L10 5H11V4C10.9998 3.49542 11.1904 3.00943 11.5335 2.63945C11.8766 2.26947 12.3468 2.04284 12.85 2.005L13 2H14ZM11 7H10V11.465C10.3107 11.6457 10.644 11.7823 11 11.875V7ZM14 4H13V11.874C13.3503 11.7835 13.6867 11.6459 14 11.465V4ZM8 5H7V9.014C7.382 9.06 7.72 9.212 8 9.425V5ZM17 6H16V9.425C16.2405 9.24123 16.5178 9.11161 16.813 9.045L17 9.015V6Z" fill="white"/>
</svg>
