<svg width="22" height="22" viewBox="0 0 22 22" fill="none" xmlns="http://www.w3.org/2000/svg">
<path d="M8.08499 12.8333C9.16666 12.8333 9.67083 12.3933 10.3125 11.9442C11.0092 11.4583 12.045 11.11 12.8333 11.4767C13.1817 11.6325 14.245 11.9442 14.6667 11.9442C15.5833 11.9442 16.61 11.1283 16.4908 9.845C16.2617 7.41583 13.8875 5.5 11 5.5C8.11249 5.5 5.79333 7.37 5.51833 9.77167C5.35333 11.2292 6.38916 12.8333 8.08499 12.8333ZM8.70833 8.25C9.46916 8.25 10.0833 8.86417 10.0833 9.625C10.0833 10.3858 9.46916 11 8.70833 11C7.94749 11 7.33333 10.3858 7.33333 9.625C7.33333 8.86417 7.94749 8.25 8.70833 8.25Z" fill="#F1B045"/>
<path d="M20.1392 11.0092C20.1575 10.7617 20.1575 10.505 20.1392 10.2575C19.7542 5.53668 15.7483 1.83334 11 1.83334C6.25167 1.83334 2.3375 5.39001 1.87917 10.1017C1.8425 10.505 1.8425 10.8992 1.87917 11.2933V13.7683C1.57667 16.8942 3.61167 19.6808 6.50834 20.1025C7.27003 20.2204 8.048 20.1768 8.79178 19.9747C9.53557 19.7726 10.2286 19.4164 10.8258 18.9292C11.5592 18.3242 12.5583 18.2417 13.4292 18.7092C14.0892 19.0667 14.8408 19.25 15.5925 19.25H15.6017C16.7658 19.25 17.875 18.7367 18.7275 17.82C19.7358 16.72 20.2675 15.1708 20.1483 13.7592L20.1758 11.0092H20.1483H20.1392ZM3.70334 10.2758C4.07 6.50834 7.205 3.66668 11 3.66668C14.795 3.66668 18.0033 6.62751 18.3058 10.4042C18.3792 11.3208 18.0675 12.2558 17.4717 12.8975C17.1142 13.2825 16.5 13.75 15.5833 13.75C15.125 13.75 14.685 13.64 14.2817 13.42C12.7508 12.595 10.9725 12.76 9.6525 13.8325C8.84584 14.4925 7.81917 14.7767 6.77417 14.6208C4.84 14.3367 3.4925 12.43 3.70334 10.2758Z" fill="#F1B045"/>
</svg>
