<svg width="25" height="25" viewBox="0 0 25 25" fill="none" xmlns="http://www.w3.org/2000/svg">
<path fill-rule="evenodd" clip-rule="evenodd" d="M11.9792 3.125C12.2343 3.12503 12.4806 3.2187 12.6712 3.38824C12.8619 3.55778 12.9837 3.7914 13.0135 4.04479L13.0208 4.16666V11.6562L20.25 9.68541C20.5165 9.61301 20.8008 9.64937 21.0404 9.78649C21.2801 9.9236 21.4555 10.1503 21.5281 10.4167C22.0727 12.4132 21.9777 14.5302 21.2564 16.47C20.5351 18.4097 19.2238 20.0744 17.507 21.2301C15.7903 22.3857 13.7544 22.974 11.6858 22.9123C9.61726 22.8505 7.6201 22.1418 5.97532 20.8858C4.33054 19.6299 3.1209 17.8898 2.51658 15.9105C1.91227 13.9313 1.94368 11.8123 2.60641 9.85182C3.26913 7.89132 4.52982 6.18792 6.21111 4.98126C7.8924 3.7746 9.90969 3.1254 11.9792 3.125ZM10.9375 5.27708C8.97493 5.54315 7.18663 6.54457 5.93422 8.07884C4.68182 9.61311 4.05879 11.5657 4.19111 13.5418C4.32343 15.5179 5.20124 17.37 6.64701 18.7236C8.09279 20.0772 9.99865 20.8313 11.9792 20.8333C13.0636 20.8334 14.1361 20.6077 15.1285 20.1707C16.1209 19.7336 17.0115 19.0947 17.7435 18.2947C18.4756 17.4947 19.033 16.551 19.3804 15.5238C19.7279 14.4966 19.8576 13.4082 19.7615 12.3281L19.724 11.9885L12.2531 14.026C12.1084 14.0654 11.9569 14.0731 11.8089 14.0485C11.6609 14.0239 11.52 13.9677 11.3957 13.8836C11.2715 13.7995 11.1669 13.6896 11.0891 13.5614C11.0112 13.4332 10.962 13.2896 10.9448 13.1406L10.9375 13.0208V5.27708ZM13.0208 14.5833C13.7115 14.5833 14.3739 14.8577 14.8623 15.3461C15.3506 15.8344 15.625 16.4968 15.625 17.1875C15.625 17.8782 15.3506 18.5405 14.8623 19.0289C14.3739 19.5173 13.7115 19.7917 13.0208 19.7917C12.3302 19.7917 11.6678 19.5173 11.1794 19.0289C10.691 18.5405 10.4167 17.8782 10.4167 17.1875C10.4167 16.4968 10.691 15.8344 11.1794 15.3461C11.6678 14.8577 12.3302 14.5833 13.0208 14.5833ZM13.0208 16.6667C12.8827 16.6667 12.7502 16.7215 12.6526 16.8192C12.5549 16.9169 12.5 17.0494 12.5 17.1875C12.5 17.3256 12.5549 17.4581 12.6526 17.5558C12.7502 17.6535 12.8827 17.7083 13.0208 17.7083C13.159 17.7083 13.2915 17.6535 13.3891 17.5558C13.4868 17.4581 13.5417 17.3256 13.5417 17.1875C13.5417 17.0494 13.4868 16.9169 13.3891 16.8192C13.2915 16.7215 13.159 16.6667 13.0208 16.6667ZM17.7083 13.5417C17.9635 13.5417 18.2097 13.6354 18.4004 13.8049C18.5911 13.9744 18.7129 14.2081 18.7427 14.4615L18.75 14.5937C18.7497 14.8592 18.648 15.1146 18.4658 15.3077C18.2835 15.5007 18.0344 15.6169 17.7694 15.6325C17.5043 15.648 17.2434 15.5618 17.0398 15.3914C16.8362 15.221 16.7053 14.9793 16.674 14.7156L16.6667 14.5833C16.6667 14.3071 16.7764 14.0421 16.9718 13.8468C17.1671 13.6514 17.4321 13.5417 17.7083 13.5417ZM7.81251 12.5C8.22691 12.5 8.62434 12.6646 8.91736 12.9576C9.21039 13.2507 9.37501 13.6481 9.37501 14.0625C9.37501 14.4769 9.21039 14.8743 8.91736 15.1674C8.62434 15.4604 8.22691 15.625 7.81251 15.625C7.39811 15.625 7.00068 15.4604 6.70765 15.1674C6.41463 14.8743 6.25001 14.4769 6.25001 14.0625C6.25001 13.6481 6.41463 13.2507 6.70765 12.9576C7.00068 12.6646 7.39811 12.5 7.81251 12.5ZM15.9313 2.12916C18.133 2.80863 20.0295 4.23363 21.2948 6.15937C21.443 6.38501 21.4978 6.65935 21.4476 6.92459C21.3975 7.18983 21.2463 7.42525 21.026 7.58125L20.9208 7.64687L15.0792 10.8115C14.9184 10.8985 14.7376 10.9418 14.5548 10.9369C14.3721 10.9319 14.1938 10.879 14.038 10.7833C13.8822 10.6877 13.7543 10.5527 13.6672 10.392C13.5801 10.2313 13.5368 10.0505 13.5417 9.8677L13.5542 9.7375L14.5958 2.96666C14.6186 2.81884 14.6728 2.67765 14.755 2.55268C14.8372 2.42771 14.9453 2.3219 15.072 2.24244C15.1987 2.16298 15.341 2.11173 15.4893 2.09219C15.6375 2.07264 15.7883 2.08525 15.9313 2.12916ZM8.33334 8.33333C8.58848 8.33336 8.83473 8.42703 9.0254 8.59657C9.21606 8.76611 9.33786 8.99973 9.36772 9.25312L9.37501 9.38541C9.37471 9.65091 9.27305 9.90628 9.09079 10.0993C8.90853 10.2924 8.65943 10.4086 8.39439 10.4241C8.12934 10.4397 7.86836 10.3535 7.66477 10.1831C7.46117 10.0126 7.33032 9.77093 7.29897 9.50729L7.29167 9.375C7.29167 9.09873 7.40142 8.83378 7.59677 8.63843C7.79212 8.44308 8.05707 8.33333 8.33334 8.33333Z" fill="white"/>
</svg>
