<svg width="25" height="25" viewBox="0 0 25 25" fill="none" xmlns="http://www.w3.org/2000/svg">
<path d="M12.5 2.08333C11.3409 2.08284 10.2089 2.43395 9.25355 3.09027C8.29817 3.74659 7.56434 4.67726 7.14896 5.75937C6.71685 5.63486 6.27881 5.53196 5.83646 5.45104C4.9267 5.28626 4.00372 5.20537 3.07917 5.20937L2.9 5.21354L2.85 5.21562L2.82917 5.21666C2.63698 5.22715 2.45543 5.30822 2.31933 5.44432C2.18323 5.58042 2.10216 5.76197 2.09167 5.95416L2.08854 6.02604C2.08646 6.0677 2.08507 6.12708 2.08438 6.20416C2.08229 6.35625 2.08333 6.57395 2.09271 6.84166C2.11354 7.37708 2.17292 8.12083 2.32604 8.96145C2.46563 9.72708 2.68854 10.5917 3.04479 11.4583H2.86042C2.65432 11.4583 2.45667 11.5402 2.31094 11.6859C2.1652 11.8317 2.08333 12.0293 2.08333 12.2354V12.5C2.08333 13.5885 2.25 14.6385 2.56042 15.625H22.4396C22.7567 14.6137 22.9175 13.5599 22.9167 12.5V12.2354C22.9167 12.0293 22.8348 11.8317 22.6891 11.6859C22.5433 11.5402 22.3457 11.4583 22.1396 11.4583H21.8719L21.874 11.3281C21.8734 10.2005 21.4979 9.10513 20.8066 8.21431C20.1152 7.32348 19.1474 6.6878 18.0552 6.40729C17.7424 5.17096 17.0261 4.07434 16.0196 3.29112C15.0132 2.5079 13.7742 2.08286 12.499 2.08333M12.499 3.64583C13.3322 3.64581 14.1463 3.89563 14.8361 4.363C15.526 4.83038 16.0598 5.49384 16.3688 6.2677C15.4731 6.3432 14.6134 6.65485 13.8774 7.17088C13.1414 7.68692 12.5554 8.38888 12.1792 9.2052C11.8983 8.78898 11.5784 8.40042 11.224 8.04479C10.4438 7.26458 9.53646 6.70104 8.61771 6.29166C8.92363 5.51134 9.45778 4.84141 10.1504 4.36939C10.843 3.89737 11.6618 3.64521 12.5 3.64583M20.3115 11.3281C20.3115 11.3719 20.3104 11.4153 20.3083 11.4583H13.299L13.2802 11.4062V11.3281C13.2802 10.3957 13.6506 9.50151 14.3099 8.8422C14.9692 8.18289 15.8634 7.8125 16.7958 7.8125C17.7282 7.8125 18.6224 8.18289 19.2818 8.8422C19.9411 9.50151 20.3115 10.3957 20.3115 11.3281ZM10.1198 9.15C10.7896 9.81875 11.275 10.624 11.625 11.4583H9.4375L7.58333 9.60416C7.51181 9.52741 7.42556 9.46584 7.32973 9.42314C7.2339 9.38044 7.13044 9.35748 7.02555 9.35563C6.92065 9.35378 6.81645 9.37308 6.71917 9.41237C6.62189 9.45166 6.53352 9.51015 6.45934 9.58433C6.38515 9.65852 6.32667 9.74689 6.28737 9.84417C6.24808 9.94144 6.22878 10.0456 6.23063 10.1505C6.23249 10.2554 6.25545 10.3589 6.29815 10.4547C6.34085 10.5506 6.40241 10.6368 6.47917 10.7083L7.22917 11.4583H4.76042C4.30208 10.5458 4.02708 9.56979 3.86458 8.6802C3.75057 8.05326 3.68095 7.41904 3.65625 6.78229V6.7802C4.13542 6.79791 4.80417 6.85104 5.55521 6.98854C7.07604 7.26666 8.84583 7.87395 10.1198 9.15ZM3.19479 17.1875C4.06305 18.9106 5.39282 20.3586 7.03583 21.3702C8.67885 22.3818 10.5705 22.9172 12.5 22.9167C14.4295 22.9172 16.3212 22.3818 17.9642 21.3702C19.6072 20.3586 20.937 18.9106 21.8052 17.1875H3.19479Z" fill="white"/>
</svg>
