<svg width="24" height="24" viewBox="0 0 24 24" fill="none" xmlns="http://www.w3.org/2000/svg">
<path d="M20.8869 2.625L20.8857 20.6415C21.2083 21.1723 21.542 21.3764 21.8218 21.375C22.0995 21.3737 22.4296 21.1672 22.7459 20.6523L21.8822 11.4502L21.8721 11.3381L21.9412 11.2487C22.9338 9.97519 23.2806 7.77492 22.9975 5.91389C22.8559 4.98333 22.5596 4.14108 22.1446 3.54567C21.7966 3.04636 21.3815 2.72784 20.887 2.625H20.8869ZM3.43185 2.62519L3.4311 5.77177L2.84235 5.77102V2.62537H2.17181L2.1719 5.77116H1.58231V2.62537H0.899338V7.46419C0.899291 7.99936 1.19137 8.29612 1.65121 8.47959L1.84153 8.55563L1.83731 8.76047C1.74356 12.7247 1.65088 16.6889 1.55784 20.653C1.87846 21.1777 2.20781 21.3763 2.48203 21.375C2.75624 21.3737 3.08531 21.1698 3.40185 20.6516C3.29329 16.6885 3.18484 12.7253 3.07649 8.76206L3.07087 8.55581L3.26179 8.48053C3.74573 8.28806 4.06049 7.96144 4.06049 7.46447V2.62519H3.43185ZM12 4.45312C9.99844 4.45312 8.07886 5.24824 6.66355 6.66355C5.24823 8.07887 4.45312 9.99844 4.45312 12C4.45312 14.0016 5.24823 15.9211 6.66355 17.3364C8.07886 18.7518 9.99844 19.5469 12 19.5469C14.0015 19.5469 15.9211 18.7518 17.3364 17.3364C18.7518 15.9211 19.5469 14.0016 19.5469 12C19.5469 9.99844 18.7518 8.07887 17.3364 6.66355C15.9211 5.24824 14.0015 4.45313 12 4.45312Z" fill="#F1B045"/>
</svg>
