<svg width="20" height="20" viewBox="0 0 20 20" fill="none" xmlns="http://www.w3.org/2000/svg">
<g clip-path="url(#clip0_111_4)">
<path fill-rule="evenodd" clip-rule="evenodd" d="M4.63143 2.4443C5.52714 2.05573 6.23857 2.07144 6.80143 2.32715C7.38 2.59001 7.95429 3.17858 8.41429 4.23573C8.58762 4.63858 8.70476 5.01001 8.76571 5.35001C8.84857 5.79287 9.24714 6.1043 9.69714 6.07858C10.2486 6.0443 10.7671 6.19715 11.2371 6.59144C11.0229 6.72954 10.8248 6.89001 10.6429 7.07287C10.1857 7.53001 9.86857 8.08715 9.67857 8.71858C9.58776 9.02169 9.52511 9.33253 9.49143 9.64715C9.45075 10.0176 9.4431 10.391 9.46857 10.7629C9.22667 10.7629 8.98524 10.7643 8.74429 10.7672C8.56429 9.44001 8.24857 7.88716 6.95143 6.36858C6.87611 6.27672 6.78322 6.20081 6.6782 6.1453C6.57317 6.08979 6.45813 6.05579 6.3398 6.04531C6.22147 6.03482 6.10224 6.04805 5.98909 6.08422C5.87594 6.12039 5.77115 6.17878 5.68085 6.25596C5.59055 6.33315 5.51656 6.42757 5.46321 6.53371C5.40986 6.63985 5.37823 6.75557 5.37017 6.87408C5.36211 6.9926 5.37778 7.11154 5.41626 7.22392C5.45475 7.33631 5.51527 7.43988 5.59429 7.52858C6.50571 8.59573 6.77286 9.64573 6.94286 10.7972C5.70278 10.8251 4.46314 10.8699 3.22429 10.9314C3.01 9.90001 3.27286 9.1543 3.83 8.6243C3.98763 8.47431 4.08507 8.27193 4.10401 8.05517C4.12295 7.83842 4.06209 7.6222 3.93286 7.44715C3.70382 7.1305 3.51163 6.78877 3.36 6.42858C2.9 5.37144 2.86286 4.55144 3.06571 3.94858C3.26143 3.36287 3.73714 2.8343 4.63143 2.4443ZM18.2857 11.3257C18.3381 11.0095 18.3638 10.6805 18.3629 10.3386C18.3629 9.0343 17.9943 7.89001 17.1757 7.07287C16.3571 6.25573 15.2129 5.88573 13.9086 5.88573C13.6229 5.88573 13.3452 5.90382 13.0757 5.94001C12.3543 5.02858 11.4271 4.4543 10.3471 4.31858C10.2644 4.0482 10.1656 3.78297 10.0514 3.5243C9.48 2.20858 8.64714 1.2043 7.54 0.700011C6.41714 0.19144 5.16714 0.265726 3.92143 0.807154C2.67428 1.34715 1.76571 2.21001 1.37286 3.37858C0.985714 4.53144 1.15 5.82573 1.72143 7.14001C1.83857 7.40668 1.96524 7.65954 2.10143 7.89858C1.38143 8.89287 1.20857 10.1157 1.50429 11.4186C1.1288 11.6038 0.818756 11.8991 0.615564 12.2652C0.412372 12.6312 0.325706 13.0505 0.367142 13.4672C0.558571 15.3629 1.00429 17.0172 2.54143 18.1272C4.01429 19.19 6.35714 19.6429 10 19.6429C13.6429 19.6429 15.9843 19.1914 17.4586 18.1272C18.9957 17.0186 19.4414 15.3643 19.6329 13.4686C19.6768 13.0127 19.5684 12.5552 19.3246 12.1675C19.0809 11.7798 18.7156 11.4837 18.2857 11.3257ZM11.26 10.7686C13.0213 10.7848 14.7821 10.8353 16.5414 10.92C16.5652 10.7419 16.5771 10.5481 16.5771 10.3386C16.5771 9.36287 16.3057 8.72858 15.9129 8.33573C15.52 7.94287 14.8843 7.67144 13.9086 7.67144C13.5343 7.67335 13.2076 7.71049 12.9286 7.78287L12.9086 7.78858C12.8044 7.8161 12.7018 7.84948 12.6014 7.88858C12.411 7.96477 12.2443 8.05668 12.1014 8.1643C11.8539 8.34948 11.6565 8.59352 11.5271 8.8743C11.35 9.24144 11.2414 9.72144 11.2414 10.3386C11.2414 10.49 11.2476 10.6343 11.26 10.7686Z" fill="#F1B045"/>
</g>
<defs>
<clipPath id="clip0_111_4">
<rect width="20" height="20" fill="white"/>
</clipPath>
</defs>
</svg>
