<svg width="27" height="27" viewBox="0 0 27 27" fill="none" xmlns="http://www.w3.org/2000/svg">
<path d="M14.2009 8.71875C14.2009 9.495 13.8859 10.125 13.4978 10.125C13.1096 10.125 12.7946 9.495 12.7946 8.71875C12.7946 7.9425 13.1096 7.3125 13.4978 7.3125C13.8859 7.3125 14.2009 7.9425 14.2009 8.71875ZM18.4061 9.495C18.018 10.1666 17.4308 10.5548 17.0944 10.3613C16.758 10.1666 16.8008 9.4635 17.1889 8.79188C17.577 8.11913 18.1643 7.731 18.5006 7.92563C18.837 8.12025 18.7943 8.82225 18.4061 9.495ZM9.90113 10.3613C9.56475 10.5548 8.97863 10.1666 8.58938 9.495C8.20125 8.82225 8.1585 8.11913 8.49488 7.9245C8.83238 7.731 9.41963 8.11913 9.80775 8.79075C10.1959 9.4635 10.2375 10.1666 9.90113 10.3613Z" fill="#F1B045"/>
<path fill-rule="evenodd" clip-rule="evenodd" d="M3.65625 14.1919V11.25C3.65625 9.06075 4.84087 7.14375 6.62962 5.80163C8.41837 4.46063 10.8495 3.65625 13.5 3.65625C16.1505 3.65625 18.5816 4.46063 20.3704 5.80163C22.1591 7.14263 23.3437 9.06075 23.3437 11.25V14.1908C23.9151 14.3703 24.4142 14.7274 24.7686 15.2101C25.1229 15.6929 25.314 16.2761 25.314 16.875C25.314 17.4739 25.1229 18.0571 24.7686 18.5399C24.4142 19.0226 23.9151 19.3797 23.3437 19.5592V20.25C23.3437 21.0705 23.0178 21.8574 22.4376 22.4376C21.8574 23.0178 21.0705 23.3438 20.25 23.3438H6.75C5.92948 23.3438 5.14258 23.0178 4.56239 22.4376C3.9822 21.8574 3.65625 21.0705 3.65625 20.25V19.5592C3.08535 19.3795 2.58667 19.0223 2.23266 18.5397C1.87866 18.057 1.68779 17.4741 1.68779 16.8756C1.68779 16.277 1.87866 15.6941 2.23266 15.2115C2.58667 14.7288 3.08535 14.3717 3.65625 14.1919ZM5.34375 11.25C5.34375 9.711 6.17287 8.25412 7.64212 7.15162C9.1125 6.05025 11.1791 5.34375 13.5 5.34375C15.8209 5.34375 17.8886 6.05025 19.3579 7.15162C20.826 8.25412 21.6562 9.711 21.6562 11.25V11.5312H5.34375V11.25ZM5.34375 13.7812V13.2188H21.6562V13.7812H18C17.7762 13.7812 17.5616 13.8701 17.4034 14.0284C17.2451 14.1866 17.1562 14.4012 17.1562 14.625V15.75C17.1562 15.9738 17.0674 16.1884 16.9091 16.3466C16.7509 16.5049 16.5363 16.5938 16.3125 16.5938C16.0887 16.5938 15.8741 16.5049 15.7159 16.3466C15.5576 16.1884 15.4687 15.9738 15.4687 15.75V14.625C15.4687 14.4012 15.3799 14.1866 15.2216 14.0284C15.0634 13.8701 14.8488 13.7812 14.625 13.7812H5.34375ZM5.34375 19.9688V20.25C5.34375 21.0262 5.97375 21.6562 6.75 21.6562H20.25C21.0262 21.6562 21.6562 21.0262 21.6562 20.25V19.9688H5.34375Z" fill="#F1B045"/>
</svg>
