<svg width="24" height="24" viewBox="0 0 24 24" fill="none" xmlns="http://www.w3.org/2000/svg">
<path fill-rule="evenodd" clip-rule="evenodd" d="M14.5 5.5C14.5 3.56701 12.933 2.00003 11 2.00003L10.808 2.00519C8.96428 2.10489 7.5 3.63147 7.5 5.5C7.5 7.43303 9.06703 9.00002 11 9.00002L11.1921 8.99481C13.0357 8.89516 14.5 7.36858 14.5 5.5ZM12 17C12 18.0929 12.2922 19.1175 12.8027 20H4.00003V16.4C4.00003 13.4922 6.23447 11.1212 9.03361 11.0045L9.24998 11H12.75C13.661 11 14.5177 11.2387 15.2645 11.6585C13.3262 12.6531 12 14.6717 12 17ZM15.0611 21.0451L18 19.25L20.9389 21.0451L20.1399 17.6953L22.7553 15.4549L19.3225 15.1797L18 12L16.6775 15.1797L13.2447 15.4549L15.8601 17.6953L15.0611 21.0451Z" fill="#F1B045"/>
</svg>
