<svg width="20" height="20" viewBox="0 0 20 20" fill="none" xmlns="http://www.w3.org/2000/svg">
<path d="M9.5 15.1342L15.6633 8.97084C14.6265 8.53769 13.6848 7.90517 12.8917 7.10917C12.0953 6.31587 11.4625 5.37388 11.0292 4.33667L4.86583 10.5C4.385 10.9808 4.14416 11.2217 3.9375 11.4867C3.69366 11.7996 3.48438 12.1379 3.31333 12.4958C3.16916 12.7992 3.06166 13.1225 2.84666 13.7675L1.71166 17.17C1.65942 17.3258 1.65167 17.4931 1.68928 17.653C1.72689 17.813 1.80837 17.9593 1.92456 18.0754C2.04074 18.1916 2.18703 18.2731 2.34698 18.3107C2.50694 18.3483 2.67421 18.3406 2.83 18.2883L6.2325 17.1533C6.87833 16.9383 7.20083 16.8308 7.50416 16.6867C7.86361 16.5156 8.2 16.3075 8.51333 16.0625C8.77833 15.8558 9.01916 15.615 9.5 15.1342ZM17.3733 7.26083C17.9879 6.64631 18.3331 5.81283 18.3331 4.94375C18.3331 4.07468 17.9879 3.2412 17.3733 2.62667C16.7588 2.01214 15.9253 1.6669 15.0562 1.6669C14.1872 1.6669 13.3537 2.01214 12.7392 2.62667L12 3.36583L12.0317 3.45833C12.3958 4.50065 12.9919 5.44666 13.775 6.225C14.5766 7.03152 15.5557 7.63937 16.6342 8L17.3733 7.26083Z" fill="white"/>
</svg>
