<svg width="24" height="24" viewBox="0 0 24 24" fill="none" xmlns="http://www.w3.org/2000/svg">
<path d="M2 12.02V11.02H4.033C4.30433 9.056 5.13333 7.42333 6.52 6.122C7.90667 4.82067 9.56667 4.115 11.5 4.005V3H12.5V4.006C14.4167 4.116 16.0683 4.82167 17.455 6.123C18.8417 7.42433 19.6707 9.05633 19.942 11.019H22V12.019L2 12.02ZM7.77 20.02V13.02H15.762C15.944 13.02 16.099 13.0673 16.227 13.162C16.355 13.2567 16.446 13.3767 16.5 13.522C16.5533 13.666 16.569 13.8127 16.547 13.962C16.525 14.1107 16.448 14.2407 16.316 14.352L14.917 15.558H10.635V16.5H15.231L17.377 14.689C17.667 14.4477 17.9807 14.2743 18.318 14.169C18.6553 14.0637 18.9987 14.0227 19.348 14.046C19.6967 14.082 20.0277 14.176 20.341 14.328C20.6543 14.48 20.9297 14.6963 21.167 14.977L16.177 19.152C15.8357 19.4387 15.4613 19.655 15.054 19.801C14.646 19.9463 14.2217 20.019 13.781 20.019L7.77 20.02ZM3.807 21C3.575 21 3.38233 20.9233 3.229 20.77C3.07567 20.6167 2.99933 20.424 3 20.192V13.808C3 13.588 3.07667 13.3983 3.23 13.239C3.38333 13.0797 3.576 13 3.808 13H6.769V20.192C6.769 20.424 6.689 20.6167 6.529 20.77C6.37033 20.9233 6.18133 21 5.962 21H3.807Z" fill="#F1B045"/>
</svg>
