<svg width="24" height="24" viewBox="0 0 24 24" fill="none" xmlns="http://www.w3.org/2000/svg">
<path fill-rule="evenodd" clip-rule="evenodd" d="M5.586 4.586C5 5.172 5 6.114 5 8V17C5 18.886 5 19.828 5.586 20.414C6.172 21 7.114 21 9 21H15C16.886 21 17.828 21 18.414 20.414C19 19.828 19 18.886 19 17V8C19 6.114 19 5.172 18.414 4.586C17.828 4 16.886 4 15 4H9C7.114 4 6.172 4 5.586 4.586ZM9 8C8.73478 8 8.48043 8.10536 8.29289 8.29289C8.10536 8.48043 8 8.73478 8 9C8 9.26522 8.10536 9.51957 8.29289 9.70711C8.48043 9.89464 8.73478 10 9 10H15C15.2652 10 15.5196 9.89464 15.7071 9.70711C15.8946 9.51957 16 9.26522 16 9C16 8.73478 15.8946 8.48043 15.7071 8.29289C15.5196 8.10536 15.2652 8 15 8H9ZM9 12C8.73478 12 8.48043 12.1054 8.29289 12.2929C8.10536 12.4804 8 12.7348 8 13C8 13.2652 8.10536 13.5196 8.29289 13.7071C8.48043 13.8946 8.73478 14 9 14H15C15.2652 14 15.5196 13.8946 15.7071 13.7071C15.8946 13.5196 16 13.2652 16 13C16 12.7348 15.8946 12.4804 15.7071 12.2929C15.5196 12.1054 15.2652 12 15 12H9ZM9 16C8.73478 16 8.48043 16.1054 8.29289 16.2929C8.10536 16.4804 8 16.7348 8 17C8 17.2652 8.10536 17.5196 8.29289 17.7071C8.48043 17.8946 8.73478 18 9 18H13C13.2652 18 13.5196 17.8946 13.7071 17.7071C13.8946 17.5196 14 17.2652 14 17C14 16.7348 13.8946 16.4804 13.7071 16.2929C13.5196 16.1054 13.2652 16 13 16H9Z" fill="#313131"/>
</svg>
